<?xml version="1.0" encoding="utf-8"?>
<!-- Generator: Adobe Illustrator 16.0.4, SVG Export Plug-In . SVG Version: 6.00 Build 0)  -->
<!DOCTYPE svg PUBLIC "-//W3C//DTD SVG 1.1//EN" "http://www.w3.org/Graphics/SVG/1.1/DTD/svg11.dtd">
<svg version="1.1" id="Layer_1" xmlns="http://www.w3.org/2000/svg" xmlns:xlink="http://www.w3.org/1999/xlink" x="0px" y="0px"
	 width="142.518px" height="26.938px" viewBox="0 0 142.518 26.938" enable-background="new 0 0 142.518 26.938"
	 xml:space="preserve">
<g>
	<linearGradient id="SVGID_1_" gradientUnits="userSpaceOnUse" x1="3.5894" y1="26.4199" x2="3.5894" y2="0.5181">
		<stop  offset="0" style="stop-color:#DADBDC"/>
		<stop  offset="1" style="stop-color:#000000"/>
	</linearGradient>
	<path fill="url(#SVGID_1_)" d="M0,0.518h7.179V26.42H0V0.518z"/>
	<linearGradient id="SVGID_2_" gradientUnits="userSpaceOnUse" x1="14.5781" y1="13.9131" x2="14.5781" y2="0.5181">
		<stop  offset="0" style="stop-color:#DADBDC"/>
		<stop  offset="1" style="stop-color:#000000"/>
	</linearGradient>
	<path fill="url(#SVGID_2_)" d="M10.508,11.212c2.479-0.296,3.774-1.48,3.7-3.479h-2.849V0.518h7.29v5.883
		c0,5.477-2.96,7.364-7.586,7.512L10.508,11.212z"/>
	<linearGradient id="SVGID_3_" gradientUnits="userSpaceOnUse" x1="38.1665" y1="26.4199" x2="38.1665" y2="5.9575">
		<stop  offset="0" style="stop-color:#DADBDC"/>
		<stop  offset="1" style="stop-color:#000000"/>
	</linearGradient>
	<path fill="url(#SVGID_3_)" d="M22.015,6.401h7.03V9.14c1.295-1.665,3.146-3.182,5.958-3.182c2.664,0,4.699,1.184,5.772,3.256
		c1.739-1.998,3.774-3.256,6.697-3.256c4.255,0,6.846,2.664,6.846,7.327V26.42h-7.031V15.541c0-2.183-1.073-3.367-2.738-3.367
		c-1.666,0-2.886,1.184-2.886,3.367V26.42H34.67V15.541c0-2.183-1.11-3.367-2.775-3.367c-1.665,0-2.849,1.184-2.849,3.367V26.42
		h-7.03V6.401z"/>
	<linearGradient id="SVGID_4_" gradientUnits="userSpaceOnUse" x1="77.9404" y1="26.8638" x2="77.9404" y2="0.0742">
		<stop  offset="0" style="stop-color:#DADBDC"/>
		<stop  offset="1" style="stop-color:#000000"/>
	</linearGradient>
	<path fill="url(#SVGID_4_)" d="M66.636,22.572l3.996-4.773c2.59,2.035,5.402,3.108,8.4,3.108c1.961,0,2.997-0.666,2.997-1.776
		v-0.074c0-1.11-0.851-1.666-4.403-2.517c-5.513-1.258-9.769-2.812-9.769-8.104V8.363c0-4.811,3.811-8.289,10.028-8.289
		c4.403,0,7.844,1.184,10.657,3.441l-3.589,5.069c-2.368-1.702-4.958-2.553-7.252-2.553c-1.739,0-2.59,0.703-2.59,1.665v0.074
		c0,1.184,0.888,1.702,4.514,2.516c5.92,1.295,9.621,3.219,9.621,8.067v0.074c0,5.292-4.181,8.437-10.472,8.437
		C74.185,26.864,69.855,25.421,66.636,22.572z"/>
	<linearGradient id="SVGID_5_" gradientUnits="userSpaceOnUse" x1="103.395" y1="26.605" x2="103.395" y2="0.5181">
		<stop  offset="0" style="stop-color:#DADBDC"/>
		<stop  offset="1" style="stop-color:#000000"/>
	</linearGradient>
	<path fill="url(#SVGID_5_)" d="M89.575,0.518h7.993l5.883,16.392l5.92-16.392h7.845l-10.509,26.087h-6.66L89.575,0.518z"/>
	<linearGradient id="SVGID_6_" gradientUnits="userSpaceOnUse" x1="129.8628" y1="26.938" x2="129.8628" y2="0">
		<stop  offset="0" style="stop-color:#DADBDC"/>
		<stop  offset="1" style="stop-color:#000000"/>
	</linearGradient>
	<path fill="url(#SVGID_6_)" d="M117.208,13.543v-0.074C117.208,5.92,123.128,0,131.121,0c4.551,0,7.771,1.369,10.509,3.737
		l-4.218,5.106c-1.85-1.554-3.663-2.442-6.253-2.442c-3.737,0-6.624,3.108-6.624,7.068v0.074c0,4.218,2.923,7.215,7.031,7.215
		c1.776,0,3.108-0.37,4.144-1.073V16.54h-5.069v-5.254h11.878v11.619c-2.738,2.294-6.513,4.033-11.249,4.033
		C123.202,26.938,117.208,21.388,117.208,13.543z"/>
</g>
</svg>
